<svg width="70" height="54" viewBox="0 0 70 54" fill="none" xmlns="http://www.w3.org/2000/svg">
<path d="M63.9607 14.9848C62.5016 13.5172 60.5217 12.6926 58.4571 12.6926C56.3925 12.6926 54.4125 13.5172 52.9534 14.9848L49.418 18.537L34.3205 3.38813C29.8172 -1.12938 22.5234 -1.12938 18.02 3.38813L41.2243 26.7224L18 50.0568C20.161 52.2296 23.093 53.4504 26.1502 53.4504C29.2075 53.4504 32.1394 52.2296 34.3004 50.0568L60.5523 23.7343C62.8112 21.3727 65.9862 20.1237 69.2405 20.3164L63.9607 14.9848Z" fill="white"/>
<path d="M32.8178 26.7453L16.6911 10.549C14.5301 8.37611 11.5981 7.15527 8.54085 7.15527C5.48358 7.15527 2.55165 8.37611 0.390625 10.549L16.4906 26.7252L0.390625 42.9014C2.55165 45.0743 5.48358 46.2951 8.54085 46.2951C11.5981 46.2951 14.5301 45.0743 16.6911 42.9014L32.8178 26.7453Z" fill="white"/>
</svg>
